<svg xmlns="http://www.w3.org/2000/svg" height="39.68" width="39.68"><defs><clipPath id="a"><path d="M0 297.64V0h297.64v297.64z"/></clipPath></defs><g clip-path="url(#a)" transform="matrix(.13333 0 0 -.13333 0 39.68)"><path d="M1.73 1.73h294.18v294.18H1.73z" fill="#fff"/><path d="M3.46 3.46h290.72v290.72H3.46zM295.9 1.73v1.73zM0 0v297.64h297.64V0H0" fill="#231f20"/><path d="M150.12 53.52h126.26v89.05c-47.91-9.42-91.95-37.53-126.26-89.05" fill="#2b78c6" fill-rule="evenodd"/><path d="M21.25 53.52h108.5c30.39 56 92.5 98.37 146.63 106.44v84.9H169.49c-27.58-18.83-51.42-58.73-59.55-75.69l-.04 75.7H21.25V53.52" fill="#231f20" fill-rule="evenodd"/></g></svg>